<?xml version="1.0" encoding="utf-8"?>
<!-- Generator: Adobe Illustrator 22.1.0, SVG Export Plug-In . SVG Version: 6.00 Build 0)  -->
<svg version="1.1" id="Layer_1" xmlns="http://www.w3.org/2000/svg" xmlns:xlink="http://www.w3.org/1999/xlink" x="0px" y="0px"
	 viewBox="0 0 12 12" style="enable-background:new 0 0 12 12;" xml:space="preserve">
<style type="text/css">
	.st0{fill:#484848;}
</style>
<g transform="translate(0, 0)">
	<path class="st0" d="M6,12c-0.1,0-0.2,0-0.3-0.1C5.4,11.7,0,6.5,0,3.4c0-1.3,0.7-2.4,1.8-3C2.6,0,3.5-0.1,4.4,0.1
		C5,0.3,5.6,0.7,6,1.2C6.6,0.4,7.6,0,8.6,0h0C10.5,0,12,1.5,12,3.4c0,3.1-5.4,8.2-5.7,8.4C6.2,12,6.1,12,6,12z M3.4,1
		C3,1,2.6,1.1,2.3,1.3C1.5,1.7,1,2.5,1,3.4c0,2.1,3.3,5.8,5,7.4c1.7-1.6,5-5.3,5-7.4C11,2.1,9.9,1,8.6,1C7.7,1,6.9,1.5,6.4,2.3
		C6.4,2.4,6.2,2.5,6,2.5c0,0,0,0,0,0c-0.2,0-0.4-0.1-0.4-0.3c-0.3-0.6-0.8-1-1.4-1.2C3.9,1,3.7,1,3.4,1z"/>
</g>
</svg>
