<?xml version="1.0" encoding="UTF-8"?>
<svg width="18px" height="22px" viewBox="0 0 18 22" version="1.1" xmlns="http://www.w3.org/2000/svg" xmlns:xlink="http://www.w3.org/1999/xlink">
    <!-- Generator: Sketch 49.1 (51147) - http://www.bohemiancoding.com/sketch -->
    <title>single-02-outline-24</title>
    <desc>Created with Sketch.</desc>
    <defs></defs>
    <g id="Page-1" stroke="none" stroke-width="1" fill="none" fill-rule="evenodd" stroke-linecap="square">
        <g id="2.1-Front---Located---v3" transform="translate(-309.000000, -1727.000000)" stroke="#838383" stroke-width="2">
            <g id="Group" transform="translate(0.000000, 1717.000000)">
                <g id="single-02-outline-24" transform="translate(310.000000, 11.000000)">
                    <path d="M10.6666667,12 L5.33333333,12 C2.38755556,12 0,14.686 0,18 L0,19 C0,19 2.77777778,20 8,20 C13.2222222,20 16,19 16,19 L16,18 C16,14.686 13.6124444,12 10.6666667,12 Z" id="Shape"></path>
                    <path d="M4,4.54545455 C4,2.03545455 5.7912,0 8,0 C10.2088,0 12,2.03545455 12,4.54545455 C12,7.05545455 10.2088,10 8,10 C5.7912,10 4,7.05545455 4,4.54545455 Z" id="Shape"></path>
                </g>
            </g>
        </g>
    </g>
</svg>